<svg xmlns="http://www.w3.org/2000/svg" width="203.29" height="35" viewBox="0 0 203.29 35"><rect class="svg__rect" x="0" y="0" width="98.49" height="35" fill="#31C4F3"/><rect class="svg__rect" x="96.49" y="0" width="106.8" height="35" fill="#389AD5"/><path class="svg__text" d="M17.33 22L14.22 22L14.22 13.47L17.14 13.47Q18.59 13.47 19.34 14.05Q20.10 14.63 20.10 15.78L20.10 15.78Q20.10 16.36 19.78 16.83Q19.47 17.30 18.86 17.56L18.86 17.56Q19.55 17.75 19.93 18.26Q20.31 18.78 20.31 19.51L20.31 19.51Q20.31 20.71 19.53 21.36Q18.76 22 17.33 22L17.33 22ZM15.70 18.15L15.70 20.82L17.35 20.82Q18.04 20.82 18.44 20.47Q18.83 20.13 18.83 19.51L18.83 19.51Q18.83 18.18 17.47 18.15L17.47 18.15L15.70 18.15ZM15.70 14.66L15.70 17.06L17.15 17.06Q17.84 17.06 18.23 16.75Q18.62 16.43 18.62 15.86L18.62 15.86Q18.62 15.23 18.26 14.95Q17.90 14.66 17.14 14.66L17.14 14.66L15.70 14.66ZM24.64 19.16L24.64 19.16L24.64 13.47L26.12 13.47L26.12 19.18Q26.12 20.03 26.55 20.48Q26.98 20.93 27.83 20.93L27.83 20.93Q29.54 20.93 29.54 19.13L29.54 19.13L29.54 13.47L31.02 13.47L31.02 19.17Q31.02 20.53 30.15 21.32Q29.28 22.12 27.83 22.12L27.83 22.12Q26.36 22.12 25.50 21.33Q24.64 20.55 24.64 19.16ZM37.15 22L35.67 22L35.67 13.47L37.15 13.47L37.15 22ZM47.32 22L41.96 22L41.96 13.47L43.44 13.47L43.44 20.82L47.32 20.82L47.32 22ZM58.90 22L57.42 22L57.42 13.47L62.84 13.47L62.84 14.66L58.90 14.66L58.90 17.20L62.33 17.20L62.33 18.38L58.90 18.38L58.90 22ZM66.73 18.00L66.73 18.00L66.73 17.52Q66.73 16.28 67.17 15.32Q67.61 14.37 68.42 13.86Q69.22 13.35 70.27 13.35Q71.31 13.35 72.12 13.85Q72.92 14.35 73.36 15.29Q73.80 16.23 73.81 17.48L73.81 17.48L73.81 17.96Q73.81 19.21 73.37 20.16Q72.94 21.10 72.13 21.61Q71.33 22.12 70.28 22.12L70.28 22.12Q69.24 22.12 68.43 21.61Q67.62 21.10 67.18 20.17Q66.73 19.23 66.73 18.00ZM68.21 17.46L68.21 17.96Q68.21 19.36 68.76 20.13Q69.31 20.90 70.28 20.90L70.28 20.90Q71.26 20.90 71.79 20.15Q72.32 19.40 72.32 17.96L72.32 17.96L72.32 17.51Q72.32 16.09 71.79 15.34Q71.25 14.58 70.27 14.58L70.27 14.58Q69.31 14.58 68.77 15.33Q68.22 16.09 68.21 17.46L68.21 17.46ZM79.75 22L78.27 22L78.27 13.47L81.27 13.47Q82.75 13.47 83.55 14.13Q84.35 14.79 84.35 16.05L84.35 16.05Q84.35 16.90 83.94 17.48Q83.53 18.06 82.79 18.37L82.79 18.37L84.71 21.92L84.71 22L83.12 22L81.41 18.71L79.75 18.71L79.75 22ZM79.75 14.66L79.75 17.52L81.28 17.52Q82.03 17.52 82.45 17.15Q82.87 16.77 82.87 16.11L82.87 16.11Q82.87 15.43 82.48 15.05Q82.09 14.68 81.32 14.66L81.32 14.66L79.75 14.66Z" fill="#FFFFFF"/><path class="svg__text" d="M112.47 15.48L109.89 15.48L109.89 13.60L117.41 13.60L117.41 15.48L114.84 15.48L114.84 22L112.47 22L112.47 15.48ZM124.16 22L121.78 22L121.78 13.60L124.16 13.60L124.16 16.76L127.40 16.76L127.40 13.60L129.77 13.60L129.77 22L127.40 22L127.40 18.72L124.16 18.72L124.16 22ZM141.68 22L134.94 22L134.94 13.60L141.53 13.60L141.53 15.44L137.29 15.44L137.29 16.85L141.02 16.85L141.02 18.63L137.29 18.63L137.29 20.17L141.68 20.17L141.68 22ZM155.54 22L152.81 13.60L155.26 13.60L156.95 18.96L158.72 13.60L160.91 13.60L162.60 19.01L164.37 13.60L166.63 13.60L163.91 22L161.37 22L159.76 16.89L158.08 22L155.54 22ZM177.89 22L171.15 22L171.15 13.60L177.74 13.60L177.74 15.44L173.50 15.44L173.50 16.85L177.23 16.85L177.23 18.63L173.50 18.63L173.50 20.17L177.89 20.17L177.89 22ZM187.24 22L182.70 22L182.70 13.60L187.00 13.60Q188.60 13.60 189.44 14.19Q190.28 14.79 190.28 15.79L190.28 15.79Q190.28 16.39 189.99 16.87Q189.69 17.34 189.15 17.62L189.15 17.62Q189.87 17.87 190.28 18.41Q190.69 18.94 190.69 19.70L190.69 19.70Q190.69 20.80 189.80 21.40Q188.91 22 187.24 22L187.24 22ZM185.05 18.58L185.05 20.28L187.04 20.28Q188.29 20.28 188.29 19.43L188.29 19.43Q188.29 18.58 187.04 18.58L187.04 18.58L185.05 18.58ZM185.05 15.31L185.05 16.94L186.68 16.94Q187.88 16.94 187.88 16.12L187.88 16.12Q187.88 15.31 186.68 15.31L186.68 15.31L185.05 15.31Z" fill="#FFFFFF" x="109.49"/></svg>