<svg xmlns="http://www.w3.org/2000/svg" width="279.26" height="35" viewBox="0 0 279.26 35"><rect class="svg__rect" x="0" y="0" width="172.36" height="35" fill="#EA4560"/><rect class="svg__rect" x="170.36" y="0" width="108.9" height="35" fill="#C13B3A"/><path class="svg__text" d="M15.60 22L13.63 13.47L15.10 13.47L16.43 19.88L18.06 13.47L19.30 13.47L20.91 19.89L22.22 13.47L23.69 13.47L21.72 22L20.31 22L18.68 15.77L17.02 22L15.60 22ZM28.54 22L27.00 22L30.23 13.47L31.56 13.47L34.78 22L33.24 22L32.54 20.01L29.23 20.01L28.54 22ZM30.89 15.28L29.65 18.82L32.12 18.82L30.89 15.28ZM40.42 14.66L37.78 14.66L37.78 13.47L44.55 13.47L44.55 14.66L41.89 14.66L41.89 22L40.42 22L40.42 14.66ZM48.04 18.19L48.04 18.19L48.04 17.39Q48.04 16.19 48.47 15.27Q48.89 14.35 49.69 13.85Q50.49 13.35 51.54 13.35L51.54 13.35Q52.95 13.35 53.81 14.12Q54.68 14.89 54.82 16.29L54.82 16.29L53.34 16.29Q53.23 15.37 52.80 14.96Q52.37 14.55 51.54 14.55L51.54 14.55Q50.57 14.55 50.06 15.26Q49.54 15.96 49.53 17.33L49.53 17.33L49.53 18.09Q49.53 19.47 50.02 20.20Q50.52 20.92 51.47 20.92L51.47 20.92Q52.34 20.92 52.78 20.53Q53.22 20.14 53.34 19.22L53.34 19.22L54.82 19.22Q54.69 20.59 53.81 21.35Q52.93 22.12 51.47 22.12L51.47 22.12Q50.45 22.12 49.68 21.63Q48.90 21.15 48.48 20.26Q48.06 19.37 48.04 18.19ZM60.61 22L59.13 22L59.13 13.47L60.61 13.47L60.61 17.02L64.43 17.02L64.43 13.47L65.90 13.47L65.90 22L64.43 22L64.43 18.21L60.61 18.21L60.61 22ZM78.30 14.66L75.66 14.66L75.66 13.47L82.43 13.47L82.43 14.66L79.77 14.66L79.77 22L78.30 22L78.30 14.66ZM87.67 22L86.19 22L86.19 13.47L87.67 13.47L87.67 17.02L91.48 17.02L91.48 13.47L92.96 13.47L92.96 22L91.48 22L91.48 18.21L87.67 18.21L87.67 22ZM103.28 22L97.70 22L97.70 13.47L103.24 13.47L103.24 14.66L99.18 14.66L99.18 17.02L102.69 17.02L102.69 18.19L99.18 18.19L99.18 20.82L103.28 20.82L103.28 22ZM115.75 22L112.69 13.47L114.31 13.47L116.46 20.14L118.63 13.47L120.25 13.47L117.18 22L115.75 22ZM125.77 22L124.29 22L124.29 13.47L125.77 13.47L125.77 22ZM133.03 22L130.58 22L130.58 13.47L133.10 13.47Q134.23 13.47 135.10 13.97Q135.98 14.48 136.46 15.40Q136.94 16.33 136.94 17.52L136.94 17.52L136.94 17.95Q136.94 19.16 136.46 20.08Q135.97 21.00 135.08 21.50Q134.19 22 133.03 22L133.03 22ZM132.06 14.66L132.06 20.82L133.03 20.82Q134.19 20.82 134.82 20.09Q135.44 19.36 135.45 17.99L135.45 17.99L135.45 17.52Q135.45 16.13 134.85 15.40Q134.25 14.66 133.10 14.66L133.10 14.66L132.06 14.66ZM146.98 22L141.41 22L141.41 13.47L146.94 13.47L146.94 14.66L142.89 14.66L142.89 17.02L146.39 17.02L146.39 18.19L142.89 18.19L142.89 20.82L146.98 20.82L146.98 22ZM150.91 18.00L150.91 18.00L150.91 17.52Q150.91 16.28 151.35 15.32Q151.80 14.37 152.60 13.86Q153.41 13.35 154.45 13.35Q155.49 13.35 156.30 13.85Q157.10 14.35 157.54 15.29Q157.98 16.23 157.99 17.48L157.99 17.48L157.99 17.96Q157.99 19.21 157.56 20.16Q157.12 21.10 156.32 21.61Q155.51 22.12 154.46 22.12L154.46 22.12Q153.42 22.12 152.61 21.61Q151.80 21.10 151.36 20.17Q150.92 19.23 150.91 18.00ZM152.39 17.46L152.39 17.96Q152.39 19.36 152.94 20.13Q153.49 20.90 154.46 20.90L154.46 20.90Q155.45 20.90 155.98 20.15Q156.51 19.40 156.51 17.96L156.51 17.96L156.51 17.51Q156.51 16.09 155.97 15.34Q155.43 14.58 154.45 14.58L154.45 14.58Q153.49 14.58 152.95 15.33Q152.40 16.09 152.39 17.46L152.39 17.46Z" fill="#FFFFFF"/><path class="svg__text" d="M186.67 18.95L183.47 13.60L185.98 13.60L187.97 16.94L189.96 13.60L192.26 13.60L189.05 18.99L189.05 22L186.67 22L186.67 18.95ZM195.92 17.80L195.92 17.80Q195.92 16.55 196.52 15.55Q197.13 14.56 198.19 14.00Q199.25 13.43 200.59 13.43L200.59 13.43Q201.92 13.43 202.98 14.00Q204.04 14.56 204.65 15.55Q205.25 16.55 205.25 17.80L205.25 17.80Q205.25 19.05 204.65 20.04Q204.04 21.04 202.98 21.60Q201.92 22.17 200.59 22.17L200.59 22.17Q199.25 22.17 198.19 21.60Q197.13 21.04 196.52 20.04Q195.92 19.05 195.92 17.80ZM198.32 17.80L198.32 17.80Q198.32 18.51 198.62 19.05Q198.92 19.60 199.44 19.90Q199.95 20.20 200.59 20.20L200.59 20.20Q201.22 20.20 201.74 19.90Q202.25 19.60 202.55 19.05Q202.85 18.51 202.85 17.80L202.85 17.80Q202.85 17.09 202.55 16.54Q202.25 16 201.74 15.70Q201.22 15.40 200.59 15.40L200.59 15.40Q199.95 15.40 199.43 15.70Q198.92 16 198.62 16.54Q198.32 17.09 198.32 17.80ZM209.91 18.26L209.91 18.26L209.91 13.60L212.29 13.60L212.29 18.19Q212.29 20.20 213.89 20.20L213.89 20.20Q215.47 20.20 215.47 18.19L215.47 18.19L215.47 13.60L217.81 13.60L217.81 18.26Q217.81 20.13 216.77 21.15Q215.73 22.17 213.86 22.17L213.86 22.17Q211.99 22.17 210.95 21.15Q209.91 20.13 209.91 18.26ZM224.69 15.48L222.11 15.48L222.11 13.60L229.63 13.60L229.63 15.48L227.06 15.48L227.06 22L224.69 22L224.69 15.48ZM233.93 18.26L233.93 18.26L233.93 13.60L236.31 13.60L236.31 18.19Q236.31 20.20 237.90 20.20L237.90 20.20Q239.49 20.20 239.49 18.19L239.49 18.19L239.49 13.60L241.83 13.60L241.83 18.26Q241.83 20.13 240.79 21.15Q239.75 22.17 237.88 22.17L237.88 22.17Q236.00 22.17 234.97 21.15Q233.93 20.13 233.93 18.26ZM251.46 22L246.92 22L246.92 13.60L251.22 13.60Q252.82 13.60 253.66 14.19Q254.50 14.79 254.50 15.79L254.50 15.79Q254.50 16.39 254.21 16.87Q253.91 17.34 253.37 17.62L253.37 17.62Q254.09 17.87 254.50 18.41Q254.91 18.94 254.91 19.70L254.91 19.70Q254.91 20.80 254.02 21.40Q253.13 22 251.46 22L251.46 22ZM249.27 18.58L249.27 20.28L251.26 20.28Q252.51 20.28 252.51 19.43L252.51 19.43Q252.51 18.58 251.26 18.58L251.26 18.58L249.27 18.58ZM249.27 15.31L249.27 16.94L250.90 16.94Q252.10 16.94 252.10 16.12L252.10 16.12Q252.10 15.31 250.90 15.31L250.90 15.31L249.27 15.31ZM266.37 22L259.62 22L259.62 13.60L266.22 13.60L266.22 15.44L261.98 15.44L261.98 16.85L265.71 16.85L265.71 18.63L261.98 18.63L261.98 20.17L266.37 20.17L266.37 22Z" fill="#FFFFFF" x="183.36"/></svg>